/* XPM */
static char *TLFtpClientComponent[]={
"23 23 5 1",
"c c None",
". c None",
"# c #000000",
"b c #2050cc",
"a c #ff00ff",
".......................",
".######....#####.......",
".#aaaa#....#aaaa#......",
".#a#########a##a#......",
".#a#aaaaaaa#aaaa#...b..",
".#a####a####a###c.bb...",
".#aaa##a#..#a#..bbb....",
".#a####a#..#a#.bb......",
".#a#..#a#..#a#bb.......",
".#a#..#a#..#a#b........",
".#a#..#a#..###b........",
".###..#a#..bbb.........",
"......###.bbbbbb.......",
"............bbb........",
".....#.....bb..........",
"...##################..",
"..#aaaaaaaaaaaaaaaaa#..",
"...##################..",
".....#.b.........#.....",
"..##################...",
"..#aaaaaaaaaaaaaaaaa#..",
"..##################...",
".................#....."};
