/* XPM */
static char *TLSMTPClientComponent[]={
"23 23 6 1",
"c c None",
". c None",
"# c #000000",
"b c #2050cc",
"a c #0000ff",
"d c #ddbb55",
".#..#.#####.....####...",
"#a##a#aaaaa#####aaaa#..",
"#a##a###a#aaaaa#a###a#.",
"#aaaa#.#a###a###a###a#.",
"#a##a#.#a#.#a#.#aaaa#..",
"#a##a#.#a#.#a#b#a###...",
".#..#...#..#a#.#a#.....",
"...........b#..#a#.....",
"..........bb....#......",
".........bbb...........",
"........bbbb...........",
".........bbbbb.........",
"........bbbb...........",
".......bbb.............",
"......bb...............",
".....b.................",
"....#..#.......#..#....",
"...#..#d#.....#d#..#...",
"..#...#d#.....#d#...#..",
".#....#d#.....#d#....#.",
"..#...#d####..#d#...#..",
"...#..#ddddd#.#d#..#...",
"....#..#####...#..#...."};
