/* XPM */
static char *TLSMTPClientComponent[]={
"23 23 6 1",
"c c None",
". c None",
"# c #000000",
"b c #2050cc",
"a c #ffff00",
"d c #ddbb55",
".............######....",
"..####..#...#aaaaaa#...",
".#aaaa##a#.#a##a###b...",
"..#a##.#aa#aa##a#.###..",
"..##a#.#a#a#a##a##aaa#.",
".#aaaa##a###a##a##a##a#",
"..####.#a#.#a##a##aaa#.",
".......#a#.#a#b#.#a##..",
"........#.bb#....#a#...",
".........bbb......#a#..",
"........bbbb......#....",
".........bbbbb.........",
"........bbbb...........",
".......bbb.............",
"......bb...............",
"..###################..",
"..#dddddd#ddd#dddddd#..",
"..#ddddddd#d#ddddddd#..",
"..#dd####dd#ddd###dd#..",
"..#dd###dddddd####dd#..",
"..#ddddddddddddddddd#..",
"..###################..",
"......................."};
