/* XPM */
static char *TLTelnetClientComponent[] = {
/* columns rows colors chars-per-pixel */
"23 23 6 1",
"  c black",
". c #2050CC",
"X c #9F9B00",
"o c #CECECE",
"O c gray100",
"+ c None",
/* pixels */
" +++++++ ++++++++++++ +",
"o +++++ o ++++++++++ o ",
"oo +  + o +   +++   ooo",
"o + oo  o  ooo + oo  o ",
"o  o  o o  o  o o  o o ",
"o  ooo  o  o  o ooo  o ",
"o  o  + o  o  o o  + o ",
"oo  oo  oo o  o  oo  oo",
"  ++  ++  + +.     ++  ",
"++++++++++++...++++++++",
"+++++++++++...+++++++++",
"++++++++++...++++++++++",
"+++++++++......++++++++",
"+++++++++++...+++++++++",
"++++++++++...++++++++++",
"++++++++ . .+  ++++++++",
"+++++++ o o  oo +++++++",
"++++++ ooooo  oo ++++++",
"++++++. o o ++ oo +++++",
"+++++++ o o ++ oo +++++",
"++++++ ooooo  oo ++++++",
"+++++++ o o  oo +++++++",
"++++++++ + ++  ++++++++"
};
